<svg xmlns="http://www.w3.org/2000/svg" viewBox="0 0 352.4 131.3" enable-background="new 0 0 352.4 131.3"><path fill="#fff" d="M38.2 69.5c-3 0-4.9-1.1-5.8-1.8l-.1-.1.1-.1 1.3-2 .1-.1.1.1c.7.5 2.3 1.4 4.4 1.4 1.8 0 2.8-.8 2.8-2.1 0-1.5-1.2-1.9-3.4-2.7l-.3-.1c-2.2-.8-4.2-1.9-4.2-4.9 0-2.7 2.1-4.4 5.3-4.4 1.9 0 3.4.3 4.6 1.1l.1.1-.1.1-1 2.1H42l-.1-.1c-1.1-.6-2.2-.8-3.5-.8-1.1 0-2.5.3-2.5 1.8s1.1 1.8 3.2 2.5c2.3.8 4.8 1.8 4.8 5.2 0 3-2.1 4.8-5.7 4.8M46.2 73.5c-.6 0-1.1-.1-1.7-.2h-.1v-.1l.3-1.9v-.1H45c.3 0 .5.1.9.1 1.1 0 1.8-.4 2.3-1.4L44 57.5v-.2h3.1v.1l2.4 8.7 2.2-8.7v-.1H54.7v.2L51 69.7c-.9 2.6-2.4 3.8-4.8 3.8"/><path fill="#fff" d="M71.8 69.3H68.9V61.4c0-1-.2-1.7-1.2-1.7-.7 0-1.5.4-2.3 1.2v8.4H62.5V61.4c0-1-.2-1.7-1.2-1.7-.7 0-1.6.4-2.3 1.2v8.4H56.1V57.4H58v.1l.5 1.6c1.2-1.3 2.5-2 3.8-2 1.7 0 2.4.9 2.8 1.8.8-.9 2.1-1.8 3.7-1.8 2.7 0 3.2 2.3 3.2 4.2v8zM79.8 63.6c-2 .4-2.9.7-3.3 1.2-.2.3-.3.5-.3 1 0 .9.5 1.4 1.4 1.4.7 0 1.6-.3 2.3-.8v-2.8zm-2.9 5.9c-2.2 0-3.7-1.4-3.7-3.4 0-1.3.5-2.2 1.4-2.9 1-.7 2.6-1.2 5.2-1.5v-.3c0-1.3-.5-1.8-1.8-1.8-1.1 0-2.2.5-3.2.9l-.1.1-.1-.1-1-1.8-.1-.1.1-.1c1.5-.9 2.9-1.3 4.6-1.3 2.9 0 4.5 1.5 4.5 4.4V69.3H80.9v-.1l-.5-1.2c-.8.7-1.9 1.5-3.5 1.5"/><path fill="#fff" d="M95.2 69.3H92.2V61.4c0-1.2-.4-1.7-1.4-1.7-.8 0-1.7.5-2.5 1.3v8.4H85.4v-12H87.3v.1l.5 1.6c1.2-1.3 2.5-2 4-2 2.3 0 3.4 1.4 3.4 4.2v8zM101.4 69.5c-2.3 0-3.5-1.2-3.5-3.6v-6.4H96.2v-2.1H98l.5-3.2v-.1H100.9V57.4h2.5v2.1h-2.5v6.3c0 1 .2 1.4 1.2 1.4.3 0 .8-.1 1.2-.2h.1v.1l.3 1.9v.1h-.1c-.2.1-1 .4-2.2.4M107.4 62.3h4.1c-.1-2-.7-2.9-2-2.9-1.2-.1-1.9.9-2.1 2.9m2.3 7.2c-3.3 0-5.4-2.3-5.4-6.1s2-6.3 5.2-6.3 5 2.3 5 6.3V64.2h-7.1c.2 1.9.9 2.8 2.5 2.8 1.3 0 2.1-.5 3-1.1l.1-.1.1.1 1.1 1.7.1.1-.1.1c-1.1 1-2.2 1.7-4.5 1.7M121.2 69.5c-4 0-5.4-3.1-5.4-6.1 0-2.9 1.4-6.3 5.4-6.3 1.6 0 2.8.4 3.8 1.3l.1.1-.1.1-1.3 1.8-.1.1-.1-.1c-.7-.5-1.3-.8-2.4-.8-1.5 0-2.3 1.3-2.3 3.8s.8 3.6 2.4 3.6c1.1 0 1.8-.4 2.5-1l.1-.1.1.1 1.3 1.7.1.1-.1.1c-1.1 1.1-2.3 1.6-4 1.6"/><path fill="#FCB525" d="M14.9 50.8c-2.7 0-5.3 1.1-7.2 3-1.9 1.9-3 4.5-3 7.2s1.1 5.3 3 7.2c1.9 1.9 4.5 3 7.2 3s5.3-1.1 7.2-3c1.9-1.9 3-4.5 3-7.2s-1.1-5.3-3-7.2c-1.9-1.9-4.5-3-7.2-3m0 25.1C6.7 75.9 0 69.2 0 61s6.7-14.9 14.9-14.9S29.8 52.8 29.8 61s-6.7 14.9-14.9 14.9"/><path fill="#fff" d="M128.6 67.3h.6l.4 1.3.3-1.3h.6v1.8h-.4v-1.4l-.4 1.4h-.3l-.4-1.4v1.4h-.4v-1.8zm-1.2.3h-.4v-.3h1.3v.3h-.5v1.5h-.4v-1.5z"/><path fill="#FCB525" d="M31.1 43.8h1.2V45h-1.2zM31.1 41.5h1.2v1.2h-1.2zM27.8 45h1.1v1.1h-1.1z"/><path fill="#fff" d="M25.7 47.2h1.1v1.1h-1.1zM28.9 46.1h1.2v1.1h-1.2zM24.6 46.2h1.1v1h-1.1zM27.8 47.2h1.1v1.1h-1.1zM30 42.7h1.1v1.2H30zM27.8 43.8h2.1V45h-2.1zM26.8 45h1.1v2.2h-1.1zM26.8 48.3v1.1h-1.1v-1.1h-1.8v.8h-1v1H24v1.1h-1.1V50h-1.2v1.7h-1.1v1.1h-.7v1.1h-.8c-.9 1.3-3.1 5.5-3.8 7.2-2.4-3.4-4.3-4.7-5.8-5.2-.8-.2-1.8.6-.4 2 3.1 3.4 4 6.2 5 8.4.5 1.2 2.7 1.4 3.2.2.9-2.5 2.3-5.4 3.9-7.7v-1.2h.8v-1.1h.9v-1.3H24V54h-1.1v-1.1H24V54h1.1v-1.1h.9v-1.3h1v-.9h.9v-2.3h-1.1z"/><path fill="none" stroke="#fff" stroke-width=".998" d="M164.4 4.4v123"/><path fill="#fff" d="M217.3 6.6c-.7-1.2-1.8-1.9-3.2-1.9-1.9 0-3.5 1.2-3.5 3.2 0 1.8 1.3 2.5 2.7 3.2l.8.3c1.2.5 2.3 1 2.3 2.5 0 1.4-1.2 2.4-2.6 2.4-1.3 0-2.3-1-2.5-2.3l-1.4.4c.4 1.9 1.9 3.2 3.9 3.2 2.2 0 3.9-1.7 3.9-3.9 0-2-1.4-2.8-3-3.5l-.8-.4c-.8-.4-2-.9-2-2s1-1.9 2.1-1.9 1.7.5 2.2 1.4l1.1-.7zm3.8 4.2h1.4V9.6h-1.4V6.8h-1.3v2.8h-.8v1.2h.8v6.6h1.3v-6.6zm3.9-1.2h-1.3v7.8h1.3v-3.9c0-1 .1-2.9 1.5-2.9.3 0 .5.2.8.3l.6-1.2c-.4-.2-.7-.4-1.2-.4-.9 0-1.3.4-1.7 1.1v-.8zm7.5 1c1.6 0 2.6 1.3 2.6 2.8 0 1.6-.9 2.9-2.6 2.9-1.7 0-2.6-1.4-2.6-3 .1-1.3 1.1-2.7 2.6-2.7zm3.9-1h-1.3v1.1c-.6-.8-1.6-1.3-2.7-1.3-2.3 0-3.7 1.9-3.7 4.1 0 2.2 1.4 4.1 3.7 4.1 1.1 0 2-.4 2.7-1.3v1.1h1.3V9.6zm3.8 1.2h1.4V9.6h-1.4V6.8h-1.3v2.8h-.8v1.2h.8v6.6h1.3v-6.6zm9.4 3c.1-2.3-1.2-4.4-3.7-4.4-2.4 0-3.8 1.9-3.8 4.2 0 2.2 1.5 4 3.8 4 1.6 0 2.8-.8 3.6-2.2l-1.1-.6c-.5.9-1.2 1.6-2.4 1.6-1.5 0-2.5-1.2-2.6-2.6h6.2zm-6.1-1.1c.2-1.1 1.2-2 2.4-2s2.1.9 2.3 2h-4.7zm11.1-2.1c1.6 0 2.6 1.3 2.6 2.8 0 1.6-.9 2.9-2.6 2.9-1.7 0-2.6-1.4-2.6-3 0-1.3 1-2.7 2.6-2.7zm3.8-1h-1.3v1.1c-.6-.8-1.6-1.3-2.7-1.3-2.3 0-3.8 2-3.8 4.1 0 2.2 1.4 4.1 3.7 4.1 1 0 2.1-.5 2.7-1.3v.9c0 1.8-.4 3.3-2.5 3.3-1.4 0-2.5-.9-2.5-2.4h-1.3c.1 2.2 1.7 3.6 3.8 3.6 1.2 0 2.3-.4 3-1.4.8-1 .8-2.1.8-3.3V9.6h.1zm4.2 0h-1.3v7.8h1.3V9.6zm-.7-3.9c-.5 0-.9.4-.9.9s.4.9.9.9.9-.4.9-.9c.1-.4-.4-.9-.9-.9zm9.2 4.5c-.7-.5-1.6-.8-2.4-.8-2.3 0-4.2 1.8-4.2 4.1 0 2.4 1.8 4.1 4.1 4.1.9 0 1.7-.3 2.5-.8V15c-.6.8-1.4 1.3-2.5 1.3-1.6 0-2.7-1.3-2.7-2.9 0-1.6 1.1-2.9 2.8-2.9 1 0 1.8.5 2.4 1.3v-1.6zm8.6 1.7h1c1 0 2.1-.1 3-.8.8-.6 1.2-1.7 1.2-2.7 0-1.1-.5-2.2-1.4-2.9-.9-.6-2-.7-3.1-.7h-2.1v12.5h1.4v-5.4zm0-5.7h.5c1.6 0 3.3.1 3.3 2.2 0 1.8-1.3 2.3-2.8 2.3h-.9V6.2h-.1zm10.2 4.4c1.6 0 2.6 1.3 2.6 2.8 0 1.6-.9 2.9-2.6 2.9-1.7 0-2.6-1.4-2.6-3 .1-1.3 1.1-2.7 2.6-2.7zm3.9-1h-1.3v1.1c-.6-.8-1.6-1.3-2.7-1.3-2.3 0-3.7 1.9-3.7 4.1 0 2.2 1.4 4.1 3.7 4.1 1.1 0 2-.4 2.7-1.3v1.1h1.3V9.6zm3.7 0h-1.3v7.8h1.3v-3.9c0-1 .1-2.9 1.5-2.9.3 0 .5.2.8.3l.6-1.2c-.4-.2-.7-.4-1.2-.4-.9 0-1.3.4-1.7 1.1v-.8zm6 1.2h1.4V9.6h-1.4V6.8h-1.3v2.8h-.8v1.2h.8v6.6h1.3v-6.6zm3.9-1.2h-1.3v7.8h1.3v-3.7c0-1.4.1-3.1 1.9-3.1 1.5 0 1.6 1.1 1.6 2.4v4.4h1.3v-4.6c0-1.8-.5-3.4-2.7-3.4-1 0-1.7.4-2.2 1.2v-1h.1zm14.2 4.2c.1-2.3-1.2-4.4-3.7-4.4-2.4 0-3.8 1.9-3.8 4.2 0 2.2 1.5 4 3.8 4 1.6 0 2.9-.8 3.6-2.2l-1.1-.6c-.5.9-1.2 1.6-2.4 1.6-1.5 0-2.5-1.2-2.6-2.6h6.2zm-6-1.1c.2-1.1 1.2-2 2.4-2s2.1.9 2.3 2h-4.7zm9.1-3.1h-1.3v7.8h1.3v-3.9c0-1 .1-2.9 1.5-2.9.3 0 .5.2.8.3l.6-1.2c-.4-.2-.7-.4-1.2-.4-.9 0-1.3.4-1.7 1.1v-.8zm12.8 8c2.3 0 4.1-1.8 4.1-4.1s-1.8-4.1-4.1-4.1-4.1 1.8-4.1 4.1 1.8 4.1 4.1 4.1zm0-7c1.6 0 2.8 1.3 2.8 2.9 0 1.6-1.1 2.9-2.8 2.9-1.6 0-2.8-1.3-2.8-2.9 0-1.6 1.2-2.9 2.8-2.9zm7.4.2h2V9.6h-2V7c0-1.4 0-2.1 1.1-2.1.3 0 .6.1.9.2V3.7c-.3-.1-.6-.2-.9-.2-.8 0-1.6.3-2 1-.3.6-.3 1.4-.3 2v3.1h-.7v1.2h.7v6.6h1.3v-6.6h-.1zM208 124.1c.7-1.2 6.3-11.6 7.3-13.8.2 0 .4.1.6.1.3 0 .4 0 .6-.1.1 1.7 1 9.8 1.6 13.9h.2c.8-1.3 5.1-9.4 7-13.9.2 0 .5.1.8.1.3 0 .6 0 .9-.1-.8 1.3-3.9 6.8-4.1 7.2-1.7 3.1-3.3 6.2-5 9.4-.2-.1-.4-.1-.7-.1-.3 0-.4.1-.7.1-.1-2-1.6-13-1.7-13.3h-.2c-1 1.7-1.2 2.1-2.9 5.3-.4.8-2.5 4.5-2.9 5.2-.5.9-1 1.9-1.3 2.7-.2 0-.3-.1-.6-.1s-.6.1-.7.1c-.2-3.2-1.4-13.7-1.9-16.6.3 0 .6.1 1 .1s.7 0 1.1-.1c.2 3.3.8 10.2 1.4 13.8h.2v.1zM237.4 110c4.8 0 7.9 2.7 7.9 7.1 0 4.8-3.9 10.3-10.7 10.3-1.4 0-3.9-.2-5.8-1.8-1.8-1.5-2.1-3.8-2.1-5.2-.1-6.4 4.7-10.4 10.7-10.4m-2.9 16.5c5.9 0 8.6-5.7 8.6-9.6 0-4.3-2.8-6.1-6-6.1-5.2 0-8.4 4.9-8.4 9.9 0 4.2 2.7 5.8 5.8 5.8M260.3 127c-.4-.1-.9-.1-1.3-.1s-.8.1-1.2.1c-1.7-2.7-4.3-6.7-5.7-8.2-.4 0-.8 0-1.1-.1-.6 2.7-1.2 5.5-1.6 8.3-.3 0-.6-.1-1-.1s-.8.1-1.1.1c1.2-4.7 2.9-12.4 3.6-16.6.5.1 1 .1 1.6.1.5 0 2.8-.1 3.3-.1.9 0 2.1.1 2.9.5 1.2.6 1.8 1.7 1.8 2.7 0 1.5-.9 3.1-2.5 4.1-1.2.8-2.8 1-3.4 1.1 1.3 2.1 4.9 7.1 5.9 8.2h-.2zm-7.7-8.9c.4 0 2.5 0 3.9-.9s1.9-2.3 1.9-3.5c0-2.5-2.4-2.5-3.6-2.5-.7 0-1.3 0-2 .1-.6 2.3-.8 3.1-1.6 6.6.4.1.8.2 1.4.2M270.9 127c-1.1-.1-3.1-.1-4.3-.1-.6 0-3.1.1-4.4.1 1.3-4.7 2.9-12.4 3.6-16.6.3 0 .6.1 1.1.1.5 0 .8 0 1.1-.1-1.4 5.1-2.5 10.3-3.5 15.6 2.2 0 4.4 0 6.5-.4 0 .4-.1.7-.1 1.4M285.6 125.4c-2 1.1-3.8 1.5-6.9 1.5-1.3 0-2.7 0-3.6-.1-.7 0-1.5.1-1.7.1 1.3-4.7 2.9-12.4 3.6-16.6.4 0 .9.1 1.5.1 1.2 0 2.6-.1 4.1-.1 1.9 0 3.8.1 5.2.9 1.8 1 3 3.2 3 5.8 0 2.6-1.3 6.3-5.2 8.4m1-13.2c-1.2-.8-2.9-1-4.7-1-1 0-1.9 0-2.9.1-1 3.9-2.3 9.8-3.2 14.6 1 .1 1.9.1 2.9.1 2.4 0 4.4-.3 6.2-1.6 2.3-1.8 3.7-4.8 3.7-7.4 0-2-.7-3.9-2-4.8"/><path fill="#fff" d="M228.2 92.6c0-1.4-.1-2.9-.1-4.3.3 0 .6.1.8.1.3 0 .5 0 .8-.1-.1 1.4-.1 2.9-.1 4.3v2.9c0 1.4.1 2.9.1 4.3-.3 0-.6-.1-.8-.1-.3 0-.6 0-.8.1.1-1.4.1-2.9.1-4.3v-2.9zM247.5 100c-2.6-3-5.7-6.2-8.6-9.2 0 .6-.1 1.6-.1 3.4 0 1.4.1 5 .1 5.6-.2 0-.4-.1-.6-.1-.2 0-.4 0-.6.1.1-.8.4-5.1.4-7.3 0-2.1 0-3.7-.1-4.5h.3c2.8 2.9 6.6 7 8.7 9 0-3 0-6.3-.1-8.8.2 0 .4.1.6.1.2 0 .4 0 .5-.1-.1 1-.3 4.3-.3 5.6 0 1.7 0 5.4.1 6.1h-.3v.1zM256 92.6v-3.5c-1.2 0-2.7.1-3.7.2.1-.2.1-.3.1-.5s0-.3-.1-.5c1.5 0 2.9.1 4.4.1 1.5 0 2.9 0 4.4-.1 0 .2-.1.3-.1.5s0 .3.1.5c-1-.1-2.5-.2-3.7-.2 0 1.2-.1 2.3-.1 3.5v2.9c0 1.4.1 2.9.1 4.3-.3 0-.6-.1-.8-.1-.3 0-.6 0-.8.1.1-1.4.1-2.9.1-4.3v-2.9h.1zM267.7 92.6c0-1.4-.1-2.9-.1-4.3 1 0 2 .1 3.1.1 1 0 2 0 3.1-.1v1c-1.4-.1-2.3-.2-4.5-.2 0 .7-.1 1.3-.1 2.1v2.2c2 0 3.2-.1 4.2-.2 0 .2-.1.4-.1.5 0 .2 0 .3.1.5-1.2-.1-3.3-.2-4.2-.2v4.9c1.5 0 3.5 0 4.6-.2 0 .2-.1.4-.1.5 0 .2 0 .3.1.5-1 0-2-.1-3.1-.1-1 0-2.1 0-3.1.1.1-1.4.1-2.9.1-4.3v-2.8zM280.3 92.6c0-1.4-.1-2.9-.1-4.3.6 0 1.3.1 2 .1.6 0 1.3-.1 2-.1 1.9 0 3.6.6 3.6 2.6 0 2.2-2.2 3-3.5 3.2.8 1 3.7 4.6 4.7 5.7-.4 0-.7-.1-1-.1-.3 0-.7 0-1 .1-.7-1-3-4.1-4.4-5.6h-.6v1.2c0 1.4.1 2.9.1 4.3-.3 0-.6-.1-.8-.1-.3 0-.6 0-.8.1.1-1.4.1-2.9.1-4.3v-2.8h-.3zm1.4.9c.3.1.7.1 1.2.1 1.4 0 3.3-.6 3.3-2.6 0-1.8-1.5-2.2-2.6-2.2-.8 0-1.3.1-1.7.1-.1 1.2-.1 2.4-.1 3.6v1h-.1zM294.8 92.6c0-1.4-.1-2.9-.1-4.3.5 0 1.1.1 1.7.1.5 0 1.6-.1 2.1-.1 1 0 3.8 0 3.8 2.8 0 2.9-3 3.5-4.6 3.5h-1.4v.9c0 1.4.1 2.9.1 4.3-.3 0-.6-.1-.8-.1-.3 0-.6 0-.8.1.1-1.4.1-2.9.1-4.3v-2.9h-.1zm1.4 1.2c.4.1.8.1 1.2.1 1.4 0 3.2-.5 3.2-2.8 0-1.9-1.1-2.3-2.9-2.3h-1.5v5zM312.3 88c3.8 0 6.4 2.2 6.4 6s-2.6 6-6.4 6c-3.8 0-6.4-2.2-6.4-6s2.6-6 6.4-6m0 .6c-2.7 0-4.7 1.7-4.7 5.4s2.1 5.4 4.7 5.4c2.7 0 4.7-1.7 4.7-5.4s-2-5.4-4.7-5.4"/><path fill="#fff" d="M323.2 92.6c0-1.4-.1-2.9-.1-4.3.3 0 .6.1.8.1.3 0 .5 0 .8-.1-.1 1.4-.1 2.9-.1 4.3 0 2.8 0 4.8.1 6.4 1.6 0 3 0 4.7-.2-.1.2-.1.3-.1.5s0 .3.1.5c-1 0-2.1-.1-3.2-.1s-2.1 0-3.2.1c.1-1.4.1-2.9.1-4.3v-2.9h.1zM248.5 55.1c-5.9 1.4-11.6 3.1-17.2 5.2 4.1-3.6 8.4-7 12.9-10.2 6.2-1.8 12.4-3.1 18.7-4-5 2.7-9.8 5.7-14.4 9M325.1 62.3c-14-5.6-28.5-9-43.8-9.9 5.1-2.5 10.2-4.6 15.7-6.5 15 2 29.1 6.2 42.6 12.3-4.9 1.1-9.7 2.4-14.5 4.1M274.8 68.7c-10.8-1-21.4-.6-32.1 1.2 5.4-5.4 11.1-10.2 17.5-14.6 11.4-1.1 22.6-.7 33.9 1-7 3.6-13.4 7.6-19.3 12.4M280 43.4c-7.8.2-15.3 1-22.9 2.3 4-2.2 8.1-4.2 12.3-6 7.9-.8 15.6-1 23.5-.7-4.4 1.3-8.7 2.8-12.9 4.4M306.8 32.5c-6.8-.7-13.6-1-20.5-.9 2.7-.6 5.5-1.2 8.3-1.7 6.8.2 13.6.8 20.3 1.8-2.6.2-5.4.5-8.1.8M344.4 45.3c-10.4-4.1-21-7.1-32.1-9.1 3-.4 6.1-.6 9.1-.8 10.8 2.4 21 5.8 31 10.1-2.7-.1-5.3-.2-8-.2M312.5 40.5c-9.3-1.7-18.5-2.5-28-2.6 3.6-1.1 7.2-2.1 10.9-2.9 9.4.6 18.6 2 27.7 4.1-3.6.4-7.1.9-10.6 1.4M277.6 52.2c-4.5 0-8.9.1-13.3.4 9.9-5.9 20.4-10.3 31.7-13.3 4.6.4 9.1.9 13.6 1.7-11.4 2.4-21.9 6-32 11.2M240 70.4c-3.1.6-6.2 1.5-9.2 2.3 9.8-10.9 21.2-19.9 34.7-27 3.7-.4 7.4-.7 11.1-.8-14.1 6.4-26.2 14.9-36.6 25.5M281.9 38c-3.2.1-6.4.3-9.6.6 7.4-2.8 14.9-4.9 22.7-6.5 3.2.1 6.5.4 9.7.7-7.8 1.2-15.4 2.9-22.8 5.2M255 46.2c-2.6.6-5.1 1.2-7.7 1.9 7.9-4.9 16.2-9 25.1-12.3 2.8-.3 5.6-.5 8.4-.7-9.1 2.9-17.6 6.5-25.8 11.1M317.3 48.2c-5.6-1.4-11.1-2.6-16.8-3.4 8.6-2.4 17.2-3.9 26.1-4.6 5.3 1.5 10.4 3.2 15.6 5.2-8.4.1-16.6 1-24.9 2.8M336.2 38.8c-4.2-1.3-8.4-2.4-12.7-3.5 5.4-.2 10.8 0 16.2.4 4 1.3 7.9 2.7 11.7 4.2-5-.6-10.1-.9-15.2-1.1M309.2 35.8c-3.8-.5-7.5-.9-11.3-1.2 6.5-1.2 13-2 19.6-2.4 3.7.7 7.3 1.4 10.8 2.3-6.4.1-12.7.5-19.1 1.3M236.4 60.3C223.7 71.8 214 85 207 99.8h4.8c7.6-15.9 18.4-30 32.8-41.8-2.7.7-5.5 1.5-8.2 2.3"/><path fill="#fff" d="M299.8 112.9c.5-.8 1.2-1.4 1.9-1.8.7-.4 1.6-.6 2.7-.6.7 0 1.3.1 1.8.2.6.2 1.1.4 1.5.8.4.4.8.8 1 1.4.2.5.4 1.2.4 1.9 0 .6-.1 1.1-.2 1.6s-.3.9-.6 1.4c-.3.5-.6.9-1 1.4-.4.5-.9 1-1.4 1.5l-1.1 1.1-1.3 1.3c-.4.4-.8.9-1.2 1.3-.4.4-.7.8-1 1.2h2.4c1.2 0 2.3 0 3.2-.1.9 0 1.7-.1 2.4-.1-.1.3-.1.6-.1.9 0 .3 0 .6.1.9-.9 0-1.8-.1-2.7-.1h-5.4c-.9 0-1.8.1-2.7.1v-.4c1.7-1.7 3.2-3.1 4.2-4.2 1.1-1.1 1.9-2.1 2.5-2.9.6-.8 1-1.6 1.1-2.3.2-.7.3-1.5.3-2.3 0-1.2-.3-2.1-.8-2.7-.6-.6-1.2-.9-2-.9-.5 0-1 .1-1.4.3-.4.2-.7.4-.9.7l-.6.9c-.1.3-.2.6-.3.8h-.2l-.6-1.3zM313.1 118.9c0-1.1.1-2.2.3-3.2.2-1 .5-1.9 1-2.7.5-.8 1.1-1.4 1.8-1.8.8-.4 1.7-.7 2.7-.7 1.2 0 2.2.2 2.9.7.8.4 1.4 1 1.8 1.8.4.8.7 1.6.9 2.7.2 1 .2 2.1.2 3.2s-.1 2.2-.3 3.2c-.2 1-.6 1.9-1.1 2.7-.5.8-1.1 1.4-1.8 1.8-.7.5-1.6.7-2.6.7-1.2 0-2.2-.2-2.9-.7-.8-.5-1.4-1.1-1.8-1.8-.4-.8-.7-1.6-.9-2.7-.1-.9-.2-2-.2-3.2m2.1 0c0 1.1.1 2.1.2 3 .1.9.3 1.7.6 2.4s.7 1.2 1.2 1.6c.5.4 1.1.6 1.8.6s1.3-.2 1.8-.6c.5-.4.9-.9 1.2-1.6.3-.7.5-1.5.6-2.4.1-.9.2-1.9.2-3s-.1-2.1-.2-3c-.1-.9-.3-1.7-.6-2.4s-.7-1.2-1.2-1.6c-.5-.4-1.1-.6-1.8-.6s-1.3.2-1.8.5c-.5.4-.9.9-1.2 1.5-.3.7-.5 1.5-.6 2.4-.2 1-.2 2.1-.2 3.2"/><path fill="#fff" d="M331.9 112.1l-3 1.6c-.1-.1-.2-.3-.3-.4l-.4-.4v-.2c.9-.4 1.9-.8 2.9-1.2 1-.4 1.9-.9 2.8-1.3l.2.1c-.1 1.1-.1 2.1-.1 3.2 0 1-.1 2.1-.1 3.2v4.1c0 1.1 0 2.1.1 3.1 0 1 .1 2.1.1 3.1-.2 0-.4-.1-.6-.1h-1.2c-.2 0-.4.1-.6.1.1-1.1.1-2.1.2-3.1V112.1zM344 117.9c.3-.2.7-.3 1.1-.5.4-.1 1-.2 1.7-.2s1.4.1 2 .4c.6.2 1.1.6 1.5 1 .4.4.7.9 1 1.5.2.6.3 1.1.3 1.8 0 .8-.1 1.5-.4 2.2-.3.7-.7 1.3-1.3 1.8-.5.5-1.2.9-2 1.2-.8.3-1.6.4-2.5.4-.7 0-1.5-.1-2.2-.2-.7-.1-1.3-.4-1.8-.8v-.2c.1-.2.2-.5.2-.7.1-.3.1-.5.2-.7h.2c.1.3.4.6.6.8l.9.6c.3.2.7.3 1 .3.4.1.7.1 1 .1.5 0 1-.1 1.4-.3.5-.2.9-.5 1.2-.8.3-.4.6-.8.8-1.4.2-.6.3-1.2.3-2 0-.7-.1-1.3-.3-1.8-.2-.5-.5-.9-.8-1.2-.3-.3-.7-.5-1.1-.7-.4-.1-.8-.2-1.3-.2-.7 0-1.3.1-1.7.3-.4.2-.7.4-.9.5l-.3-.2c.1-.6.2-1.3.2-2v-4.2c0-.7-.1-1.4-.2-1.9l.2-.1c.3 0 .7.1 1.4.1s1.7.1 3 .1h3.5l.1.1c-.1.2-.1.4-.1.7v1.1c-.4-.1-.9-.1-1.5-.2-.6 0-1.2-.1-1.9-.1h-3.4l-.1 5.4z"/></svg>