<svg xmlns="http://www.w3.org/2000/svg" viewBox="0 0 612 792" enable-background="new 0 0 612 792"><circle fill="#fff" cx="306" cy="198.5" r="168.9"/><path fill="#333" d="M306 0c109.7 0 198.5 88.9 198.5 198.5C504.5 288.5 306 792 306 792S107.5 288.5 107.5 198.5C107.5 88.9 196.3 0 306 0z"/><path fill="#fff" d="M306 32.9c92.1 0 166.7 74.6 166.7 166.7S398.1 366.4 306 366.4c-92.1-1.1-165.6-75.7-165.6-167.8S213.9 32.9 306 32.9z"/><path d="M203.7 291.5c-7.3 0-12-2.8-14.1-4.4l-.2-.2.1-.2 3-4.8.2-.3.3.2c1.8 1.3 5.5 3.5 10.5 3.5 4.3 0 6.8-1.9 6.8-5.2 0-3.6-2.9-4.6-8.2-6.5l-.6-.2c-5.3-1.9-10.3-4.6-10.3-11.8 0-6.5 5-10.7 12.7-10.7 4.6 0 8.2.8 11.2 2.6l.2.1-.1.3-2.4 5-.1.3-.3-.1c-2.6-1.3-5.4-2-8.4-2-2.8 0-6.1.8-6.1 4.3s2.6 4.4 7.8 6.1c5.6 1.8 11.6 4.5 11.6 12.5.1 7.2-5 11.5-13.6 11.5zM222.9 301.3c-1.3 0-2.6-.2-4.1-.5l-.3-.1v-.3l.7-4.7v-.3h.3l.5.1c.7.1 1.3.2 2.1.2 2.7 0 4.4-1 5.6-3.3l-10.1-29.8-.1-.4H225l.1.2 5.9 21.1 5.3-21.1.1-.2H243.5l-.1.4-9 29.5c-2 6.2-5.6 9.2-11.5 9.2zM284.7 291H277.5v-19.3c0-2.4-.5-4-2.9-4-1.7 0-3.6 1-5.6 2.9V291h-7.3v-19.3c0-2.4-.5-4-2.9-4-1.8 0-3.8 1.1-5.6 3V291H246v-28.8h4.5l.1.2 1.3 3.9c3-3.2 6-4.7 9.3-4.7 4.1 0 5.8 2.2 6.7 4.4 2-2.1 5.2-4.4 9-4.4 6.5 0 7.8 5.5 7.8 10.2V291zM297.2 291.5c-5.3 0-9-3.4-9-8.3 0-3.2 1.1-5.4 3.5-6.9 2.4-1.6 6.4-2.8 12.5-3.7v-.7c0-3.2-1.1-4.3-4.2-4.3-2.6 0-5.3 1.1-7.8 2.3l-.3.1-.1-.3-2.3-4.4-.1-.3.2-.2c3.7-2.3 7-3.3 11-3.3 7.1 0 10.9 3.7 10.9 10.6v18.8H307l-.1-.2-1.2-2.8c-1.9 1.7-4.8 3.6-8.5 3.6zm7-14.2c-4.7.9-7.1 1.8-8 3-.6.7-.8 1.2-.8 2.4 0 2.1 1.2 3.3 3.3 3.3 1.8 0 3.8-.8 5.4-2.1v-6.6h.1zM341.3 291H334v-19.3c0-2.8-1-4-3.3-4-1.9 0-4.2 1.2-5.9 3V291H317.6v-28.8h4.5l.1.2 1.3 4c3-3.2 6.1-4.8 9.6-4.8 5.4 0 8.2 3.4 8.2 10.2V291zM356.4 291.5c-5.7 0-8.4-2.8-8.4-8.6v-15.5h-4.2V262.2H348.2l1.3-7.8v-.3h5.8v8.1h6.1V267.4h-6.2v15.1c0 2.5.4 3.3 2.8 3.3.7 0 1.8-.2 3-.5l.3-.1.1.3.8 4.6v.2l-.2.1c-.8.4-2.8 1.1-5.6 1.1zM376.4 291.5c-8.1 0-13.1-5.6-13.1-14.7 0-9.2 4.9-15.2 12.6-15.2 7.7 0 12.2 5.6 12.2 15.2v2h-17.3c.4 4.7 2.3 6.7 6.1 6.7 3.1 0 5.2-1.2 7.4-2.5l.3-.2.2.3 2.7 4.1.1.2-.2.2c-2.8 2.1-5.5 3.9-11 3.9zm-5.5-17.4h9.8c-.2-4.8-1.7-7.1-4.8-7.1-3 0-4.6 2.3-5 7.1zM404.2 291.5c-9.6 0-13-7.6-13-14.7 0-7 3.4-15.2 13-15.2 4 0 6.7.9 9.3 3.2l.2.2-.2.2-3 4.4-.2.3-.3-.2c-1.6-1.2-3.2-2-5.8-2-3.7 0-5.6 3.1-5.6 9.1 0 5.9 1.9 8.8 5.8 8.8 2.6 0 4.2-1 5.9-2.4l.2-.2.2.3 3.2 4 .2.2-.2.2c-2.6 2.5-5.7 3.8-9.7 3.8zM417.4 286.9h-1.1v-.7h3.1v.7h-1.1v3.6h-.9v-3.6zm2.8-.7h1.3l.9 3.2.8-3.2h1.3v4.3h-.9v-3.3l-.9 3.3h-.7l-.9-3.3v3.3h-.8v-4.3z"/><path fill="#fff" d="M356.3 175.3"/><path fill="#FDBB30" d="M301.1 238.9c-39.4 0-71.5-32.1-71.5-71.5s32.1-71.5 71.5-71.5 71.5 32.1 71.5 71.5c0 39.5-32 71.5-71.5 71.5zm0-120.3c-13 0-25.3 5.1-34.6 14.3-9.2 9.2-14.3 21.5-14.3 34.6 0 13 5.1 25.3 14.3 34.6 9.2 9.2 21.5 14.3 34.6 14.3 13.1 0 25.3-5.1 34.6-14.3 9.2-9.2 14.3-21.5 14.3-34.6 0-13-5.1-25.3-14.3-34.6-9.2-9.2-21.5-14.3-34.6-14.3zM379 84.9h5.6v5.6H379zM379 73.8h5.6v5.6H379zM363.3 90.5h5.2v5.4h-5.2z"/><path d="M353 101.2h5.3v5.2H353zM368.5 95.9h5.8v5.2h-5.8zM347.8 96.2h5.2v5h-5.2zM363.3 101.2h5.2v5.2h-5.2zM373.5 79.4h5.5v5.5h-5.5zM363.3 84.9h10.2v5.5h-10.2zM358.3 90.5h5.1v10.7h-5.1zM358.3 106.4v5.2H353v-5.2h-8.7v3.8h-4.7v4.7h5.2v5.2h-5.2v-5.2h-5.5v8.2h-5.2v5.2h-3.5v5.2h-3.8c-4.3 6.4-15.1 26.3-18.3 34.4-11.7-16.3-20.8-22.8-28-25.1-3.9-1.2-8.5 3-2.1 9.7 14.8 16.2 19.4 29.7 23.9 40.4 2.4 5.6 13 6.5 15.1.8 4.5-12.2 11.1-25.8 18.9-37.1v-5.8h4.2v-5.2h4.4v-6.1h5.2v-5.9h-5.3v-5.3h5.3v5.3h5.2v-5.3h4.2v-6.4h4.7v-4.4h4.5v-11.1h-5.2z"/><path fill="#fff" d="M301.8 175.3"/></svg>